<?xml version="1.0" standalone="no"?><!DOCTYPE svg PUBLIC "-//W3C//DTD SVG 1.1//EN" "http://www.w3.org/Graphics/SVG/1.1/DTD/svg11.dtd"><svg t="1660987776031" class="icon" viewBox="0 0 1024 1024" version="1.1" xmlns="http://www.w3.org/2000/svg" p-id="3129" xmlns:xlink="http://www.w3.org/1999/xlink" width="200" height="200"><defs><style type="text/css">@font-face { font-family: feedback-iconfont; src: url("//at.alicdn.com/t/font_1031158_u69w8yhxdu.woff2?t=1630033759944") format("woff2"), url("//at.alicdn.com/t/font_1031158_u69w8yhxdu.woff?t=1630033759944") format("woff"), url("//at.alicdn.com/t/font_1031158_u69w8yhxdu.ttf?t=1630033759944") format("truetype"); }
</style></defs><path d="M682.666667 469.333333c70.613333 0 127.573333-57.386667 127.573333-128s-56.96-128-127.573333-128c-70.613333 0-128 57.386667-128 128s57.386667 128 128 128z m-341.333334 0c70.613333 0 127.573333-57.386667 127.573334-128s-56.96-128-127.573334-128c-70.613333 0-128 57.386667-128 128s57.386667 128 128 128z m0 85.333334c-99.626667 0-298.666667 49.92-298.666666 149.333333v106.666667h597.333333v-106.666667c0-99.413333-199.04-149.333333-298.666667-149.333333z m341.333334 0c-12.373333 0-26.24 0.853333-41.173334 2.346666C690.986667 592.64 725.333333 640.64 725.333333 704v106.666667h256v-106.666667c0-99.413333-199.04-149.333333-298.666666-149.333333z" fill="#ffffff" p-id="3130"></path></svg>