<?xml version="1.0" standalone="no"?><!DOCTYPE svg PUBLIC "-//W3C//DTD SVG 1.1//EN" "http://www.w3.org/Graphics/SVG/1.1/DTD/svg11.dtd"><svg t="1660989137988" class="icon" viewBox="0 0 1024 1024" version="1.1" xmlns="http://www.w3.org/2000/svg" p-id="4965" xmlns:xlink="http://www.w3.org/1999/xlink" width="200" height="200"><defs><style type="text/css">@font-face { font-family: feedback-iconfont; src: url("//at.alicdn.com/t/font_1031158_u69w8yhxdu.woff2?t=1630033759944") format("woff2"), url("//at.alicdn.com/t/font_1031158_u69w8yhxdu.woff?t=1630033759944") format("woff"), url("//at.alicdn.com/t/font_1031158_u69w8yhxdu.ttf?t=1630033759944") format("truetype"); }
</style></defs><path d="M785.07008 170.67008h-102.4C682.67008 133.13024 651.9296 102.4 614.4 102.4H409.6c-37.5296 0-68.27008 30.73024-68.27008 68.27008h-102.4c-37.5296 0-68.25984 30.73024-68.25984 68.27008v614.4c0 37.53984 30.73024 68.27008 68.25984 68.27008h546.14016c37.5296 0 68.25984-30.73024 68.25984-68.27008v-614.4c0-37.53984-30.73024-68.27008-68.25984-68.27008z m-375.47008 0h204.8v68.27008H409.6v-68.27008z m375.47008 682.65984H238.92992v-614.4h102.4V307.2h341.34016v-68.27008h102.4v614.4z" p-id="4966" fill="#ffffff"></path><path d="M307.2 409.6h204.8v68.27008H307.2zM307.2 546.14016h409.6V614.4H307.2zM307.2 682.65984h341.32992v68.27008H307.2z" p-id="4967" fill="#ffffff"></path></svg>